<svg viewBox="0 0 512 512" xmlns="http://www.w3.org/2000/svg">
    <path d="m271 219.789062 53.789062-53.789062-53.789062-53.789062zm0 0"/>
    <path d="m271 399.789062 53.789062-53.789062-53.789062-53.789062zm0 0"/>
    <path d="m256 0c-140.609375 0-256 115.390625-256 256s115.390625 256 256 256 256-115.390625 256-256-115.390625-256-256-256zm100.605469 335.394531c5.859375 5.859375 5.859375 15.351563 0 21.210938l-90 90c-4.324219 4.324219-10.816407 5.5625-16.347657 3.253906-5.609374-2.316406-9.257812-7.796875-9.257812-13.859375v-135.007812l-63.003906 84c-4.945313 6.621093-14.34375 7.988281-20.988282 3.003906-6.636718-4.964844-7.984374-14.367188-3.003906-20.988282l83.253906-111.007812-83.253906-111.007812c-4.980468-6.621094-3.632812-16.023438 3.003906-20.988282 6.621094-5.011718 16.007813-3.648437 20.988282 3.003906l63.003906 84v-135.007812c0-6.0625 3.648438-11.542969 9.257812-13.855469 5.640626-2.332031 12.070313-1.027343 16.347657 3.25l90 90c5.859375 5.859375 5.859375 15.351563 0 21.210938l-79.394531 79.394531zm0 0"/>
</svg>